# xmcd
#
# Track frame offsets:
#	150
#	9269
#	25306
#	39664
#	47394
#	57254
#	69933
#	85588
#	94111
#	103592
#	113951
#	123950
#	137304
#	145612
#	156229
#	174570
#	186056
#	197358
#	212556
#	226595
#
# Disc length: 3153 seconds
#
# Revision: 0
# Processed by: cddbd v1.5.2PL0 Copyright (c) Steve Scherf et al.
# Submitted via: audiograbber 1.83.01
#
DISCID=f10c4f14
DTITLE=Marty Robbins - The Ultimate Collection - Disc 2
DYEAR=2003
DGENRE=Country
TTITLE0=Ruby Ann
TTITLE1=My Woman, My Woman, My Wife
TTITLE2=Cool Water
TTITLE3=A Hundred and Sixty Acres
TTITLE4=Knee Deep in the Blues
TTITLE5=Streets of Laredo
TTITLE6=I'm in the Mood for Love
TTITLE7=To Each His Own
TTITLE8=Half as Much
TTITLE9=The Hawaiian Wedding Song
TTITLE10=Running Gun
TTITLE11=Girl from Spanish Town
TTITLE12=In the Valley
TTITLE13=Sittin' in a Tree House
TTITLE14=You Gave Me a Mountain
TTITLE15=Ribbon of Darkness
TTITLE16=I'm Not Blaming You
TTITLE17=Padre
TTITLE18=Love Me Tender
TTITLE19=Can't Help Falling in Love
EXTD=
EXTT0=
EXTT1=
EXTT2=
EXTT3=
EXTT4=
EXTT5=
EXTT6=
EXTT7=
EXTT8=
EXTT9=
EXTT10=
EXTT11=
EXTT12=
EXTT13=
EXTT14=
EXTT15=
EXTT16=
EXTT17=
EXTT18=
EXTT19=
PLAYORDER=
